<svg width="75" height="75" viewBox="0 0 75 75" fill="none" xmlns="http://www.w3.org/2000/svg">
<g clip-path="url(#clip0_63_594)">
<path d="M57.4219 0H17.5781C7.86999 0 0 7.86999 0 17.5781V57.4219C0 67.13 7.86999 75 17.5781 75H57.4219C67.13 75 75 67.13 75 57.4219V17.5781C75 7.86999 67.13 0 57.4219 0Z" fill="#242938"/>
<path d="M9.87782 29.3578C9.87782 29.3578 8.49061 28.3579 10.1553 27.0228L14.033 23.5552C14.033 23.5552 15.1428 22.3877 16.3158 23.4049L52.1016 50.4984V63.4904C52.1016 63.4904 52.0844 65.5306 49.4661 65.305L9.87782 29.3578Z" fill="#2489CA"/>
<path d="M19.1015 37.7321L9.87765 46.1177C9.87765 46.1177 8.92961 46.8229 9.87765 48.0829L14.16 51.978C14.16 51.978 15.1772 53.0704 16.6798 51.8277L26.4585 44.4129L19.1015 37.7321Z" fill="#1070B3"/>
<path d="M35.295 37.8015L52.2113 24.8845L52.1015 11.962C52.1015 11.962 51.379 9.14155 48.969 10.6096L26.4585 31.0972L35.295 37.8015Z" fill="#0877B9"/>
<path d="M49.4661 65.3227C50.4487 66.3281 51.6394 65.9988 51.6394 65.9988L64.8221 59.5028C66.5096 58.3526 66.2726 56.9253 66.2726 56.9253V18.1342C66.2726 16.4291 64.5271 15.84 64.5271 15.84L53.1016 10.3321C50.6049 8.78908 48.9692 10.6096 48.9692 10.6096C48.9692 10.6096 51.0728 9.09552 52.1017 11.9619V63.2534C52.1033 63.6033 52.0263 63.949 51.8764 64.2651C51.5758 64.8718 50.9228 65.4381 49.3565 65.2011L49.4661 65.3227Z" fill="#3C99D4"/>
</g>
<defs>
<clipPath id="clip0_63_594">
<rect width="75" height="75" fill="white"/>
</clipPath>
</defs>
</svg>
