<svg width="76" height="75" viewBox="0 0 76 75" fill="none" xmlns="http://www.w3.org/2000/svg">
<g clip-path="url(#clip0_63_572)">
<path d="M57.9219 0H18.0781C8.36999 0 0.5 7.86999 0.5 17.5781V57.4219C0.5 67.13 8.36999 75 18.0781 75H57.9219C67.63 75 75.5 67.13 75.5 57.4219V17.5781C75.5 7.86999 67.63 0 57.9219 0Z" fill="#242938"/>
<mask id="mask0_63_572" style="mask-type:luminance" maskUnits="userSpaceOnUse" x="18" y="8" width="40" height="59">
<path d="M18.3711 8.20312H57.4414V66.7969H18.3711V8.20312Z" fill="white"/>
</mask>
<g mask="url(#mask0_63_572)">
<path d="M28.1408 66.7969C33.5314 66.7969 37.9063 62.422 37.9063 57.0313V47.2655H28.1408C22.7502 47.2655 18.375 51.6407 18.375 57.0313C18.375 62.422 22.7502 66.7969 28.1408 66.7969Z" fill="#0ACF83"/>
<path d="M18.375 37.5C18.375 32.1094 22.7502 27.7345 28.1408 27.7345H37.9063V47.2655H28.1408C22.7502 47.2655 18.375 42.8906 18.375 37.5Z" fill="#A259FF"/>
<path d="M18.375 17.9687C18.375 12.578 22.7502 8.20312 28.1408 8.20312H37.9063V27.7345H28.1408C22.7502 27.7345 18.375 23.3593 18.375 17.9687Z" fill="#F24E1E"/>
<path d="M37.9062 8.20312H47.6718C53.0624 8.20312 57.4376 12.578 57.4376 17.9687C57.4376 23.3593 53.0624 27.7345 47.6718 27.7345H37.9062V8.20312Z" fill="#FF7262"/>
<path d="M57.4376 37.5C57.4376 42.8906 53.0624 47.2655 47.6718 47.2655C42.2812 47.2655 37.9062 42.8906 37.9062 37.5C37.9062 32.1094 42.2812 27.7345 47.6718 27.7345C53.0624 27.7345 57.4376 32.1094 57.4376 37.5Z" fill="#1ABCFE"/>
</g>
</g>
<defs>
<clipPath id="clip0_63_572">
<rect width="75" height="75" fill="white" transform="translate(0.5)"/>
</clipPath>
</defs>
</svg>
