<svg width="72" height="73" viewBox="0 0 72 73" fill="none" xmlns="http://www.w3.org/2000/svg">
<g clip-path="url(#clip0_63_601)">
<path d="M35.5 0.5C30.8381 0.5 26.2218 1.42778 21.9147 3.23036C17.6077 5.03294 13.6942 7.67503 10.3977 11.0058C3.74017 17.7325 0 26.8559 0 36.3689C0 52.223 10.1885 65.6739 24.282 70.4444C26.057 70.7314 26.625 69.6195 26.625 68.651V62.5891C16.7915 64.7413 14.697 57.7827 14.697 57.7827C13.064 53.6219 10.7565 52.51 10.7565 52.51C7.526 50.2861 11.005 50.3578 11.005 50.3578C14.555 50.6089 16.4365 54.0523 16.4365 54.0523C19.525 59.5044 24.7435 57.8903 26.767 57.0295C27.0865 54.698 28.0095 53.1197 29.0035 52.223C21.1225 51.3263 12.851 48.2416 12.851 34.5755C12.851 30.594 14.2 27.4017 16.5075 24.855C16.1525 23.9583 14.91 20.2279 16.8625 15.3856C16.8625 15.3856 19.8445 14.4172 26.625 19.0442C29.4295 18.2551 32.4825 17.8606 35.5 17.8606C38.5175 17.8606 41.5705 18.2551 44.375 19.0442C51.1555 14.4172 54.1375 15.3856 54.1375 15.3856C56.09 20.2279 54.8475 23.9583 54.4925 24.855C56.8 27.4017 58.149 30.594 58.149 34.5755C58.149 48.2774 49.842 51.2904 41.9255 52.1871C43.2035 53.2991 44.375 55.4871 44.375 58.8229V68.651C44.375 69.6195 44.943 70.7673 46.7535 70.4444C60.847 65.638 71 52.223 71 36.3689C71 31.6586 70.0818 26.9943 68.2977 22.6425C66.5137 18.2907 63.8988 14.3365 60.6023 11.0058C57.3058 7.67503 53.3923 5.03294 49.0853 3.23036C44.7782 1.42778 40.1619 0.5 35.5 0.5Z" fill="black"/>
</g>
<defs>
<clipPath id="clip0_63_601">
<rect width="72" height="72" fill="white" transform="translate(0 0.5)"/>
</clipPath>
</defs>
</svg>
