<svg width="76" height="75" viewBox="0 0 76 75" fill="none" xmlns="http://www.w3.org/2000/svg">
<g clip-path="url(#clip0_63_584)">
<path d="M63.0488 0H12.9512C6.07458 0 0.5 5.71752 0.5 12.7704V62.2296C0.5 69.2825 6.07458 75 12.9512 75H63.0488C69.9254 75 75.5 69.2825 75.5 62.2296V12.7704C75.5 5.71752 69.9254 0 63.0488 0Z" fill="#330000"/>
<path d="M37.5949 45.0831H25.5659L23.1183 52.5376C23.085 52.6735 23.0044 52.7938 22.8903 52.8778C22.7762 52.9617 22.6358 53.0039 22.4933 52.9972H16.4006C16.0533 52.9972 15.9318 52.8099 16.0361 52.4353L26.4511 23.0259C26.5552 22.7197 26.6593 22.3708 26.7634 21.9794C26.8998 21.2979 26.9696 20.6058 26.9717 19.9116C26.9646 19.863 26.9692 19.8135 26.985 19.7669C27.0008 19.7204 27.0274 19.6781 27.0628 19.6434C27.0981 19.6087 27.1412 19.5826 27.1887 19.567C27.2362 19.5515 27.2866 19.547 27.3362 19.5539H35.6161C35.8587 19.5539 35.9975 19.6391 36.0327 19.8096L47.8534 52.4864C47.9575 52.8273 47.8534 52.9976 47.5411 52.9972H40.7712C40.655 53.0097 40.5381 52.9803 40.4424 52.9145C40.3466 52.8488 40.2784 52.7512 40.2506 52.6398L37.5949 45.0831ZM27.4405 38.6499H35.6682L35.5509 38.2702L35.3626 37.669L35.2283 37.2469L35.0139 36.5821L34.5581 35.1826L34.1573 33.942L33.1163 30.7102C32.8572 29.9068 32.6085 29.1002 32.3703 28.2907L32.1799 27.6336L31.9574 26.8567L31.6177 25.6526L31.5541 25.4258H31.5022C31.2416 26.6513 30.9243 27.8646 30.5513 29.0619L29.7787 31.4987L29.3535 32.8449L28.9245 34.2078C28.8471 34.4539 28.7697 34.6973 28.6925 34.9379L28.4621 35.6509L28.2328 36.3472L28.0048 37.0263L27.778 37.6884C27.7028 37.9064 27.6277 38.1215 27.5527 38.3335L27.4405 38.6499ZM54.8828 24.9661C54.3517 24.987 53.8221 24.8977 53.3286 24.7041C52.8351 24.5106 52.3888 24.2171 52.0188 23.8429C51.6501 23.4523 51.3637 22.9941 51.176 22.4946C50.9883 21.9952 50.9031 21.4643 50.9251 20.9325C50.9062 20.406 51.0008 19.8815 51.2027 19.3933C51.4046 18.9051 51.7092 18.4641 52.0968 18.0992C52.8442 17.3956 53.8397 17.0019 54.8758 17L54.9868 17.0012C56.2367 17.0012 57.2175 17.3671 57.9293 18.0989C58.2885 18.4792 58.5676 18.9252 58.7508 19.4115C58.9339 19.8977 59.0175 20.4146 58.9967 20.9325C59.0187 21.4665 58.931 21.9994 58.7386 22.4994C58.5463 22.9995 58.2533 23.4565 57.8772 23.8432C57.4975 24.21 57.0469 24.4987 56.5517 24.6922C56.0566 24.8857 55.527 24.9802 54.9941 24.97L54.8828 24.9661ZM51.2896 52.4864V28.0808C51.2894 27.7743 51.4282 27.6211 51.7062 27.6211H58.1116C58.3891 27.6211 58.528 27.7743 58.5282 28.0808V52.4864C58.5282 52.8273 58.3893 52.9976 58.1116 52.9972H51.7584C51.4624 52.9972 51.3066 52.8444 51.2911 52.5387L51.2896 52.4864Z" fill="#FF9A00"/>
</g>
<defs>
<clipPath id="clip0_63_584">
<rect width="75" height="75" fill="white" transform="translate(0.5)"/>
</clipPath>
</defs>
</svg>
