<svg width="279" height="57" viewBox="0 0 279 57" fill="none" xmlns="http://www.w3.org/2000/svg">
<path d="M1.9 19.6558H38.1V44.4183H40V12.0433H38.1V17.7558H1.9V12.0433H0V44.4183H1.9V19.6558Z" fill="#8259F9"/>
<path d="M38.0999 44.4183H1.8999V46.3308H38.0999V44.4183Z" fill="#8259F9"/>
<path d="M5.7124 23.4683V40.6183H34.2874V23.4683H5.7124ZM17.1374 32.9933H15.2374V34.8933H13.3374V36.8058H11.4249V34.8933H13.3374V32.9933H15.2374V31.0933H13.3374V29.1808H11.4249V27.2808H13.3374V29.1808H15.2374V31.0933H17.1374V32.9933ZM28.5749 32.9933H20.9499V31.0933H28.5749V32.9933Z" fill="#8259F9"/>
<path d="M13.3375 13.9433H11.425V15.8558H13.3375V13.9433Z" fill="#8259F9"/>
<path d="M9.525 13.9433H7.625V15.8558H9.525V13.9433Z" fill="#8259F9"/>
<path d="M5.7125 13.9433H3.8125V15.8558H5.7125V13.9433Z" fill="#8259F9"/>
<path d="M38.0999 10.1308H1.8999V12.0433H38.0999V10.1308Z" fill="#8259F9"/>
<path d="M59.4954 35.42C55.3254 35.42 52.2354 33.35 51.0054 29.57C50.9154 29.27 51.0354 29.06 51.3354 28.97L55.5054 27.95C55.7754 27.89 55.9854 27.98 56.1054 28.25C56.7654 29.84 57.8754 30.5 59.6454 30.5C61.0854 30.5 62.0754 30.02 62.0754 29C62.0754 27.89 61.1154 27.35 59.2854 26.69L57.0054 25.88C53.6454 24.71 51.5154 22.52 51.5154 19.25C51.5154 15.32 55.0254 12.56 59.4054 12.56C63.0954 12.56 66.0354 14.24 67.2654 17.99C67.3854 18.29 67.2354 18.53 66.9654 18.59L62.5854 19.76C62.2854 19.85 62.1054 19.73 61.9854 19.46C61.3254 17.9 60.4254 17.48 59.3154 17.48C58.1154 17.48 57.2154 18.02 57.2154 18.95C57.2154 19.88 58.0254 20.51 60.2754 21.26L61.9254 21.8C65.8254 23.12 67.7454 25.1 67.7454 28.73C67.7454 32.63 64.3554 35.42 59.4954 35.42ZM77.0246 35.3C72.5846 35.3 69.6146 31.97 69.6146 27.02C69.6146 22.07 72.5846 18.77 77.0246 18.77C79.0346 18.77 80.6546 19.55 81.7946 20.93L81.8546 19.52C81.8546 19.22 82.0646 19.07 82.3346 19.07H86.1146C86.4146 19.07 86.5946 19.25 86.5946 19.52V34.52C86.5946 34.82 86.4146 35 86.1146 35H82.3346C82.0646 35 81.8546 34.82 81.8546 34.52L81.7946 33.11C80.6546 34.52 79.0346 35.3 77.0246 35.3ZM78.3446 30.56C80.2946 30.56 81.6146 29.09 81.6146 27.02C81.6146 24.95 80.2946 23.51 78.3446 23.51C76.3946 23.51 75.0746 24.95 75.0746 27.02C75.0746 29.09 76.3946 30.56 78.3446 30.56ZM95.0028 35H90.5628C90.2628 35 90.0828 34.82 90.0828 34.52V19.52C90.0828 19.25 90.2628 19.07 90.5628 19.07H94.3128C94.6128 19.07 94.8228 19.22 94.8228 19.52L94.9128 21.14C95.9928 19.55 97.7028 18.86 99.5928 18.86C100.013 18.86 100.403 18.89 100.733 18.98C101.003 19.07 101.153 19.25 101.153 19.52V23.63C101.153 23.93 100.943 24.08 100.613 24.02C100.193 23.96 99.7128 23.87 99.0828 23.87C97.4928 23.87 95.4828 24.89 95.4828 27.23V34.52C95.4828 34.82 95.3028 35 95.0028 35ZM109.808 35.3C105.368 35.3 102.398 31.97 102.398 27.02C102.398 22.07 105.368 18.77 109.808 18.77C111.818 18.77 113.438 19.55 114.578 20.93L114.638 19.52C114.638 19.22 114.848 19.07 115.118 19.07H118.898C119.198 19.07 119.378 19.25 119.378 19.52V34.52C119.378 34.82 119.198 35 118.898 35H115.118C114.848 35 114.638 34.82 114.638 34.52L114.578 33.11C113.438 34.52 111.818 35.3 109.808 35.3ZM111.128 30.56C113.078 30.56 114.398 29.09 114.398 27.02C114.398 24.95 113.078 23.51 111.128 23.51C109.178 23.51 107.858 24.95 107.858 27.02C107.858 29.09 109.178 30.56 111.128 30.56ZM127.786 35H123.346C123.046 35 122.866 34.82 122.866 34.52V12.98C122.866 12.68 123.046 12.5 123.346 12.5H127.786C128.086 12.5 128.266 12.68 128.266 12.98V34.52C128.266 34.82 128.086 35 127.786 35ZM139.273 35.3C134.203 35.3 130.933 31.91 130.933 27.02C130.933 22.16 134.203 18.77 139.273 18.77C144.583 18.77 147.463 22.52 147.163 27.95C147.133 28.25 146.953 28.4 146.653 28.4H136.393C136.783 29.96 137.803 30.83 139.303 30.83C140.473 30.83 141.373 30.47 141.943 29.69C142.123 29.48 142.333 29.42 142.573 29.48L146.413 30.77C146.683 30.89 146.803 31.1 146.653 31.4C145.183 34.13 142.303 35.3 139.273 35.3ZM139.213 23C137.713 23 136.723 23.84 136.393 25.46H141.853C141.553 23.87 140.623 23 139.213 23ZM157.261 35.3C152.191 35.3 148.921 31.91 148.921 27.02C148.921 22.16 152.191 18.77 157.261 18.77C162.571 18.77 165.451 22.52 165.151 27.95C165.121 28.25 164.941 28.4 164.641 28.4H154.381C154.771 29.96 155.791 30.83 157.291 30.83C158.461 30.83 159.361 30.47 159.931 29.69C160.111 29.48 160.321 29.42 160.561 29.48L164.401 30.77C164.671 30.89 164.791 31.1 164.641 31.4C163.171 34.13 160.291 35.3 157.261 35.3ZM157.201 23C155.701 23 154.711 23.84 154.381 25.46H159.841C159.541 23.87 158.611 23 157.201 23ZM169.947 40.19H167.517C167.187 40.19 167.007 39.95 167.127 39.65L168.687 35C167.667 34.52 166.977 33.56 166.977 32.3C166.977 30.53 168.357 29.3 170.127 29.3C171.897 29.3 173.247 30.53 173.247 32.3C173.247 33.71 172.797 34.73 171.627 37.31L170.487 39.83C170.397 40.07 170.217 40.19 169.947 40.19ZM193.283 35H189.533C189.293 35 189.083 34.88 189.023 34.64L181.283 13.52C181.163 13.22 181.313 12.98 181.673 12.98H187.073C187.343 12.98 187.553 13.1 187.613 13.37L191.543 25.73L195.383 13.37C195.473 13.1 195.653 12.98 195.923 12.98H199.643C199.883 12.98 200.063 13.1 200.153 13.37L204.293 25.76L207.923 13.37C208.013 13.1 208.193 12.98 208.463 12.98H213.773C214.103 12.98 214.283 13.22 214.163 13.52L206.423 34.64C206.333 34.88 206.153 35 205.883 35H202.133C201.893 35 201.713 34.88 201.623 34.61L197.723 22.01L193.793 34.61C193.733 34.88 193.553 35 193.283 35ZM222.163 35.3C216.853 35.3 213.433 31.91 213.433 27.02C213.433 22.16 216.853 18.77 222.163 18.77C227.473 18.77 230.893 22.16 230.893 27.02C230.893 31.91 227.473 35.3 222.163 35.3ZM222.163 30.56C224.113 30.56 225.433 29.09 225.433 27.02C225.433 24.95 224.113 23.51 222.163 23.51C220.213 23.51 218.893 24.95 218.893 27.02C218.893 29.09 220.213 30.56 222.163 30.56ZM238.47 35H234.03C233.73 35 233.55 34.82 233.55 34.52V19.52C233.55 19.25 233.73 19.07 234.03 19.07H237.78C238.08 19.07 238.29 19.22 238.29 19.52L238.38 21.14C239.46 19.55 241.17 18.86 243.06 18.86C243.48 18.86 243.87 18.89 244.2 18.98C244.47 19.07 244.62 19.25 244.62 19.52V23.63C244.62 23.93 244.41 24.08 244.08 24.02C243.66 23.96 243.18 23.87 242.55 23.87C240.96 23.87 238.95 24.89 238.95 27.23V34.52C238.95 34.82 238.77 35 238.47 35ZM251.712 35H247.272C246.972 35 246.792 34.82 246.792 34.52V12.98C246.792 12.68 246.972 12.5 247.272 12.5H251.712C252.012 12.5 252.192 12.68 252.192 12.98V24.41L256.632 19.34C256.812 19.13 256.992 19.07 257.202 19.07H262.452C262.842 19.07 262.992 19.34 262.692 19.64L257.952 24.56L263.322 34.43C263.502 34.76 263.382 35 262.992 35H258.012C257.742 35 257.562 34.91 257.442 34.67L254.172 28.49L252.192 30.53V34.52C252.192 34.82 252.012 35 251.712 35ZM271.219 35.3C267.619 35.3 265.099 33.83 264.079 31.13C263.959 30.86 264.109 30.65 264.409 30.59L268.009 29.84C268.279 29.78 268.459 29.87 268.609 30.11C269.149 30.98 270.019 31.37 271.039 31.37C271.969 31.37 272.569 31.1 272.569 30.53C272.569 30.08 272.209 29.75 270.889 29.39L270.289 29.24C266.149 28.16 264.709 26.12 264.709 23.69C264.709 20.81 267.379 18.77 271.249 18.77C274.639 18.77 276.829 20.03 277.819 22.76C277.939 23.06 277.819 23.27 277.489 23.33L274.009 24.14C273.739 24.2 273.559 24.08 273.439 23.84C272.989 23.09 272.419 22.7 271.459 22.7C270.739 22.7 270.199 22.94 270.199 23.51C270.199 24.05 270.769 24.41 271.969 24.71L272.539 24.86C276.739 25.91 278.089 27.53 278.089 30.26C278.089 33.32 275.209 35.3 271.219 35.3Z" fill="#8259F9"/>
<path d="M53.487 55H51.852C51.732 55 51.657 54.925 51.657 54.805V44.185C51.657 44.065 51.732 43.99 51.852 43.99H55.182C58.077 43.99 59.547 45.4 59.547 47.83C59.547 50.26 58.077 51.67 55.182 51.67H53.682V54.805C53.682 54.925 53.607 55 53.487 55ZM55.107 45.865H53.682V49.795H55.107C56.607 49.795 57.447 49.18 57.447 47.785C57.447 46.48 56.607 45.865 55.107 45.865ZM64.5999 55.15C62.1099 55.15 60.4899 53.47 60.4899 51.115C60.4899 48.76 62.1099 47.08 64.5999 47.08C67.0899 47.08 68.7099 48.76 68.7099 51.115C68.7099 53.47 67.0899 55.15 64.5999 55.15ZM64.5999 53.38C65.8449 53.38 66.6999 52.45 66.6999 51.115C66.6999 49.78 65.8449 48.85 64.5999 48.85C63.3549 48.85 62.4999 49.78 62.4999 51.115C62.4999 52.45 63.3549 53.38 64.5999 53.38ZM72.0553 55H70.4953C70.3753 55 70.3003 54.925 70.3003 54.805V47.425C70.3003 47.305 70.3753 47.23 70.4953 47.23H71.9053C72.0253 47.23 72.1153 47.29 72.1153 47.425L72.1603 48.4C72.6853 47.56 73.6003 47.125 74.5303 47.125C74.7553 47.125 74.9053 47.14 75.0553 47.17C75.1753 47.2 75.2203 47.275 75.2203 47.38V48.925C75.2203 49.06 75.1453 49.105 75.0103 49.09C74.8153 49.075 74.5903 49.03 74.2903 49.03C73.2403 49.03 72.2503 49.75 72.2503 50.98V54.805C72.2503 54.925 72.1753 55 72.0553 55ZM80.0246 55.15C78.3446 55.15 77.4146 54.1 77.4146 52V48.97H76.2746C76.1546 48.97 76.0796 48.895 76.0796 48.775V47.425C76.0796 47.305 76.1546 47.23 76.2746 47.23H77.4146V45.145C77.4146 45.025 77.4896 44.95 77.6096 44.95H79.1696C79.2896 44.95 79.3646 45.025 79.3646 45.145V47.23H81.2096C81.3296 47.23 81.4046 47.305 81.4046 47.425V48.775C81.4046 48.895 81.3296 48.97 81.2096 48.97H79.3646V52.12C79.3646 52.96 79.6346 53.38 80.2346 53.38C80.4896 53.38 80.6696 53.275 80.8196 53.005C80.8796 52.9 80.9696 52.855 81.0896 52.915L82.2596 53.44C82.3796 53.5 82.4096 53.605 82.3196 53.755C81.7646 54.775 80.9096 55.15 80.0246 55.15ZM85.6306 55H84.0706C83.9506 55 83.8756 54.925 83.8756 54.805V48.97H82.7956C82.6756 48.97 82.6006 48.895 82.6006 48.775V47.425C82.6006 47.305 82.6756 47.23 82.7956 47.23H83.8756V46.735C83.8756 44.845 84.9406 43.645 86.6056 43.645C87.8206 43.645 88.7056 44.2 89.2306 45.295C89.2756 45.415 89.2306 45.505 89.1256 45.55L87.9106 46.06C87.8056 46.105 87.7156 46.075 87.6556 45.97C87.4156 45.55 87.1606 45.415 86.7556 45.415C86.1706 45.415 85.8256 45.85 85.8256 46.705V47.23H87.7756C87.8956 47.23 87.9706 47.305 87.9706 47.425V48.775C87.9706 48.895 87.8956 48.97 87.7756 48.97H85.8256V54.805C85.8256 54.925 85.7506 55 85.6306 55ZM92.6517 55.15C90.1617 55.15 88.5417 53.47 88.5417 51.115C88.5417 48.76 90.1617 47.08 92.6517 47.08C95.1417 47.08 96.7617 48.76 96.7617 51.115C96.7617 53.47 95.1417 55.15 92.6517 55.15ZM92.6517 53.38C93.8967 53.38 94.7517 52.45 94.7517 51.115C94.7517 49.78 93.8967 48.85 92.6517 48.85C91.4067 48.85 90.5517 49.78 90.5517 51.115C90.5517 52.45 91.4067 53.38 92.6517 53.38ZM100.107 55H98.547C98.427 55 98.352 54.925 98.352 54.805V43.945C98.352 43.825 98.427 43.75 98.547 43.75H100.107C100.227 43.75 100.302 43.825 100.302 43.945V54.805C100.302 54.925 100.227 55 100.107 55ZM103.311 45.85C102.666 45.85 102.171 45.415 102.171 44.77C102.171 44.125 102.666 43.69 103.311 43.69C103.956 43.69 104.451 44.125 104.451 44.77C104.451 45.415 103.956 45.85 103.311 45.85ZM104.091 55H102.531C102.411 55 102.336 54.925 102.336 54.805V47.425C102.336 47.305 102.411 47.23 102.531 47.23H104.091C104.211 47.23 104.286 47.305 104.286 47.425V54.805C104.286 54.925 104.211 55 104.091 55ZM109.981 55.15C107.491 55.15 105.871 53.47 105.871 51.115C105.871 48.76 107.491 47.08 109.981 47.08C112.471 47.08 114.091 48.76 114.091 51.115C114.091 53.47 112.471 55.15 109.981 55.15ZM109.981 53.38C111.226 53.38 112.081 52.45 112.081 51.115C112.081 49.78 111.226 48.85 109.981 48.85C108.736 48.85 107.881 49.78 107.881 51.115C107.881 52.45 108.736 53.38 109.981 53.38ZM122.202 55H121.212C121.107 55 121.017 54.955 120.987 54.85L118.272 47.455C118.227 47.32 118.302 47.23 118.437 47.23H120.312C120.417 47.23 120.492 47.275 120.522 47.395L121.842 51.685L123.657 47.38C123.702 47.29 123.777 47.23 123.882 47.23H124.872C124.977 47.23 125.052 47.275 125.097 47.38L126.822 51.58L128.217 47.395C128.247 47.29 128.337 47.23 128.442 47.23H130.152C130.287 47.23 130.362 47.32 130.317 47.455L127.602 54.85C127.572 54.955 127.482 55 127.377 55H126.387C126.282 55 126.207 54.955 126.162 54.85L124.347 50.41L122.427 54.85C122.382 54.94 122.307 55 122.202 55ZM134.835 55.15C132.39 55.15 130.905 53.47 130.905 51.115C130.905 48.76 132.39 47.08 134.835 47.08C137.22 47.08 138.585 48.85 138.51 51.52C138.495 51.655 138.42 51.715 138.3 51.715H132.975C133.155 52.78 133.815 53.425 134.85 53.425C135.645 53.425 136.2 53.125 136.56 52.54C136.62 52.435 136.71 52.42 136.815 52.45L138.15 52.915C138.27 52.96 138.315 53.05 138.255 53.17C137.565 54.535 136.275 55.15 134.835 55.15ZM134.82 48.805C133.905 48.805 133.245 49.33 133.005 50.26H136.425C136.245 49.345 135.66 48.805 134.82 48.805ZM144.349 55.15C143.269 55.15 142.369 54.7 141.814 53.935L141.769 54.805C141.769 54.94 141.679 55 141.559 55H140.149C140.029 55 139.954 54.925 139.954 54.805V43.945C139.954 43.825 140.029 43.75 140.149 43.75H141.709C141.829 43.75 141.904 43.825 141.904 43.945V48.175C142.474 47.485 143.329 47.08 144.349 47.08C146.569 47.08 147.979 48.73 147.979 51.115C147.979 53.5 146.569 55.15 144.349 55.15ZM143.869 53.38C145.114 53.38 145.969 52.45 145.969 51.115C145.969 49.78 145.114 48.85 143.869 48.85C142.624 48.85 141.769 49.78 141.769 51.115C141.769 52.45 142.624 53.38 143.869 53.38Z" fill="#8259F9"/>
</svg>
