<svg width="273" height="55" viewBox="0 0 273 55" fill="none" xmlns="http://www.w3.org/2000/svg">
<path d="M1.9 18.6558H38.1V43.4183H40V11.0433H38.1V16.7558H1.9V11.0433H0V43.4183H1.9V18.6558Z" fill="#8259F9"/>
<path d="M38.0999 43.4183H1.8999V45.3308H38.0999V43.4183Z" fill="#8259F9"/>
<path d="M5.7124 22.4683V39.6183H34.2874V22.4683H5.7124ZM17.1374 31.9933H15.2374V33.8933H13.3374V35.8058H11.4249V33.8933H13.3374V31.9933H15.2374V30.0933H13.3374V28.1808H11.4249V26.2808H13.3374V28.1808H15.2374V30.0933H17.1374V31.9933ZM28.5749 31.9933H20.9499V30.0933H28.5749V31.9933Z" fill="#8259F9"/>
<path d="M13.3373 12.9433H11.4248V14.8558H13.3373V12.9433Z" fill="#8259F9"/>
<path d="M9.525 12.9433H7.625V14.8558H9.525V12.9433Z" fill="#8259F9"/>
<path d="M5.7125 12.9433H3.8125V14.8558H5.7125V12.9433Z" fill="#8259F9"/>
<path d="M38.0999 9.1308H1.8999V11.0433H38.0999V9.1308Z" fill="#8259F9"/>
<path d="M63.7337 13.723C63.6626 12.9418 63.3466 12.3345 62.7855 11.9013C62.2315 11.4609 61.4396 11.2408 60.4098 11.2408C59.728 11.2408 59.1598 11.3295 58.7053 11.5071C58.2507 11.6847 57.9098 11.9297 57.6825 12.2422C57.4553 12.5476 57.3381 12.8991 57.331 13.2969C57.3168 13.6236 57.3807 13.9112 57.5227 14.1598C57.6719 14.4084 57.8849 14.6286 58.1619 14.8203C58.446 15.005 58.7869 15.1683 59.1847 15.3104C59.5824 15.4524 60.0298 15.5767 60.527 15.6832L62.402 16.1094C63.4815 16.3438 64.4332 16.6562 65.2571 17.0469C66.0881 17.4375 66.7841 17.9027 67.3452 18.4425C67.9134 18.9822 68.343 19.6037 68.6342 20.3068C68.9254 21.0099 69.0746 21.7983 69.0817 22.6719C69.0746 24.0497 68.7266 25.2322 68.0376 26.2195C67.3487 27.2067 66.358 27.9631 65.0653 28.4886C63.7798 29.0142 62.228 29.277 60.4098 29.277C58.5845 29.277 56.9936 29.0036 55.6371 28.4567C54.2805 27.9098 53.2259 27.0788 52.473 25.9638C51.7202 24.8487 51.3331 23.4389 51.3118 21.7344H56.3615C56.4041 22.4375 56.5923 23.0234 56.9261 23.4922C57.2599 23.9609 57.718 24.3161 58.3004 24.5575C58.8899 24.799 59.5717 24.9197 60.3459 24.9197C61.0561 24.9197 61.6598 24.8239 62.157 24.6321C62.6612 24.4403 63.0483 24.174 63.3182 23.8331C63.5881 23.4922 63.7266 23.1016 63.7337 22.6612C63.7266 22.2493 63.5987 21.8977 63.3501 21.6065C63.1016 21.3082 62.718 21.0526 62.1996 20.8395C61.6882 20.6193 61.0348 20.4169 60.2393 20.2322L57.9595 19.6996C56.0703 19.2663 54.5824 18.5668 53.4957 17.6009C52.4091 16.6278 51.8693 15.3139 51.8764 13.6591C51.8693 12.3097 52.2315 11.1271 52.9631 10.1115C53.6946 9.09588 54.7067 8.30398 55.9993 7.7358C57.2919 7.16761 58.7656 6.88352 60.4205 6.88352C62.1108 6.88352 63.5774 7.17116 64.8203 7.74645C66.0703 8.31463 67.0398 9.11364 67.7287 10.1435C68.4176 11.1733 68.7692 12.3665 68.7834 13.723H63.7337ZM76.358 29.277C75.3139 29.277 74.3871 29.103 73.5774 28.755C72.7749 28.3999 72.1392 27.8672 71.6705 27.157C71.2088 26.4396 70.978 25.5412 70.978 24.4616C70.978 23.5526 71.1378 22.7855 71.4574 22.1605C71.777 21.5355 72.2173 21.0277 72.7784 20.6371C73.3395 20.2464 73.9858 19.9517 74.7173 19.7528C75.4489 19.5469 76.2301 19.4084 77.0611 19.3374C77.9915 19.2521 78.7408 19.1634 79.3089 19.071C79.8771 18.9716 80.2891 18.8331 80.5447 18.6555C80.8075 18.4709 80.9389 18.2116 80.9389 17.8778V17.8246C80.9389 17.2777 80.7507 16.8551 80.3743 16.5568C79.9979 16.2585 79.4901 16.1094 78.8509 16.1094C78.1619 16.1094 77.608 16.2585 77.1889 16.5568C76.7699 16.8551 76.5036 17.267 76.3899 17.7926L71.5852 17.6222C71.7273 16.6278 72.093 15.7401 72.6825 14.9588C73.2791 14.1705 74.0959 13.5526 75.1328 13.1051C76.1768 12.6506 77.4304 12.4233 78.8935 12.4233C79.9375 12.4233 80.8999 12.5476 81.7805 12.7962C82.6612 13.0376 83.4283 13.3928 84.0817 13.8615C84.7351 14.3232 85.2393 14.8913 85.5945 15.5661C85.9567 16.2408 86.1378 17.0114 86.1378 17.8778V29H81.2372V26.7202H81.1094C80.8182 27.2741 80.4453 27.7429 79.9908 28.1264C79.5433 28.5099 79.0142 28.7976 78.4034 28.9893C77.7997 29.1811 77.1179 29.277 76.358 29.277ZM77.9666 25.8679C78.5277 25.8679 79.032 25.7543 79.4794 25.527C79.9339 25.2997 80.2962 24.9872 80.5661 24.5895C80.8359 24.1847 80.9709 23.7159 80.9709 23.1832V21.6278C80.8217 21.706 80.6406 21.777 80.4276 21.8409C80.2216 21.9048 79.9943 21.9652 79.7457 22.022C79.4972 22.0788 79.2415 22.1286 78.9787 22.1712C78.7159 22.2138 78.4638 22.2528 78.2223 22.2884C77.7322 22.3665 77.3132 22.4872 76.9652 22.6506C76.6243 22.8139 76.3615 23.027 76.1768 23.2898C75.9993 23.5455 75.9105 23.8509 75.9105 24.206C75.9105 24.7457 76.1023 25.1577 76.4858 25.4418C76.8764 25.7259 77.37 25.8679 77.9666 25.8679ZM89.3232 29V12.6364H94.3835V15.6193H94.554C94.8523 14.5398 95.3388 13.7372 96.0135 13.2116C96.6882 12.679 97.473 12.4126 98.3679 12.4126C98.6094 12.4126 98.858 12.4304 99.1136 12.4659C99.3693 12.4943 99.6072 12.5405 99.8274 12.6044V17.1321C99.5788 17.0469 99.2521 16.9794 98.8473 16.9297C98.4496 16.88 98.0945 16.8551 97.782 16.8551C97.1641 16.8551 96.6065 16.9936 96.1094 17.2706C95.6193 17.5405 95.2322 17.9205 94.9482 18.4105C94.6712 18.8935 94.5327 19.4616 94.5327 20.1151V29H89.3232ZM105.948 29.277C104.904 29.277 103.977 29.103 103.167 28.755C102.365 28.3999 101.729 27.8672 101.26 27.157C100.799 26.4396 100.568 25.5412 100.568 24.4616C100.568 23.5526 100.728 22.7855 101.047 22.1605C101.367 21.5355 101.807 21.0277 102.368 20.6371C102.929 20.2464 103.576 19.9517 104.307 19.7528C105.039 19.5469 105.82 19.4084 106.651 19.3374C107.581 19.2521 108.331 19.1634 108.899 19.071C109.467 18.9716 109.879 18.8331 110.135 18.6555C110.397 18.4709 110.529 18.2116 110.529 17.8778V17.8246C110.529 17.2777 110.341 16.8551 109.964 16.5568C109.588 16.2585 109.08 16.1094 108.441 16.1094C107.752 16.1094 107.198 16.2585 106.779 16.5568C106.36 16.8551 106.093 17.267 105.98 17.7926L101.175 17.6222C101.317 16.6278 101.683 15.7401 102.272 14.9588C102.869 14.1705 103.686 13.5526 104.723 13.1051C105.767 12.6506 107.02 12.4233 108.483 12.4233C109.527 12.4233 110.49 12.5476 111.37 12.7962C112.251 13.0376 113.018 13.3928 113.672 13.8615C114.325 14.3232 114.829 14.8913 115.184 15.5661C115.547 16.2408 115.728 17.0114 115.728 17.8778V29H110.827V26.7202H110.699C110.408 27.2741 110.035 27.7429 109.581 28.1264C109.133 28.5099 108.604 28.7976 107.993 28.9893C107.39 29.1811 106.708 29.277 105.948 29.277ZM107.556 25.8679C108.118 25.8679 108.622 25.7543 109.069 25.527C109.524 25.2997 109.886 24.9872 110.156 24.5895C110.426 24.1847 110.561 23.7159 110.561 23.1832V21.6278C110.412 21.706 110.23 21.777 110.017 21.8409C109.811 21.9048 109.584 21.9652 109.336 22.022C109.087 22.0788 108.831 22.1286 108.569 22.1712C108.306 22.2138 108.054 22.2528 107.812 22.2884C107.322 22.3665 106.903 22.4872 106.555 22.6506C106.214 22.8139 105.951 23.027 105.767 23.2898C105.589 23.5455 105.5 23.8509 105.5 24.206C105.5 24.7457 105.692 25.1577 106.076 25.4418C106.466 25.7259 106.96 25.8679 107.556 25.8679ZM124.123 7.18182V29H118.913V7.18182H124.123ZM135.088 29.3089C133.376 29.3089 131.899 28.9716 130.656 28.2969C129.42 27.6151 128.468 26.6456 127.801 25.3885C127.14 24.1243 126.81 22.6222 126.81 20.8821C126.81 19.1918 127.144 17.7145 127.811 16.4503C128.479 15.179 129.42 14.1918 130.634 13.4886C131.849 12.7784 133.28 12.4233 134.928 12.4233C136.093 12.4233 137.158 12.6044 138.124 12.9666C139.09 13.3288 139.924 13.8651 140.627 14.5753C141.33 15.2855 141.877 16.1626 142.268 17.2067C142.659 18.2436 142.854 19.4332 142.854 20.7756V22.0753H128.632V19.0497H138.007C137.999 18.4957 137.868 18.0021 137.612 17.5689C137.357 17.1357 137.005 16.7983 136.558 16.5568C136.117 16.3082 135.61 16.1839 135.034 16.1839C134.452 16.1839 133.93 16.3153 133.468 16.5781C133.007 16.8338 132.641 17.1854 132.371 17.6328C132.101 18.0732 131.959 18.5739 131.945 19.1349V22.2138C131.945 22.8814 132.076 23.4673 132.339 23.9716C132.602 24.4687 132.975 24.8558 133.458 25.1328C133.941 25.4098 134.516 25.5483 135.183 25.5483C135.645 25.5483 136.064 25.4844 136.441 25.3565C136.817 25.2287 137.14 25.0405 137.41 24.7919C137.68 24.5433 137.882 24.2379 138.017 23.8757L142.801 24.0142C142.602 25.0866 142.165 26.0206 141.49 26.8161C140.823 27.6044 139.945 28.2187 138.859 28.6591C137.772 29.0923 136.515 29.3089 135.088 29.3089ZM153.164 29.3089C151.452 29.3089 149.975 28.9716 148.732 28.2969C147.496 27.6151 146.544 26.6456 145.877 25.3885C145.216 24.1243 144.886 22.6222 144.886 20.8821C144.886 19.1918 145.22 17.7145 145.887 16.4503C146.555 15.179 147.496 14.1918 148.711 13.4886C149.925 12.7784 151.356 12.4233 153.004 12.4233C154.169 12.4233 155.234 12.6044 156.2 12.9666C157.166 13.3288 158 13.8651 158.703 14.5753C159.407 15.2855 159.953 16.1626 160.344 17.2067C160.735 18.2436 160.93 19.4332 160.93 20.7756V22.0753H146.708V19.0497H156.083C156.076 18.4957 155.944 18.0021 155.689 17.5689C155.433 17.1357 155.081 16.7983 154.634 16.5568C154.194 16.3082 153.686 16.1839 153.11 16.1839C152.528 16.1839 152.006 16.3153 151.544 16.5781C151.083 16.8338 150.717 17.1854 150.447 17.6328C150.177 18.0732 150.035 18.5739 150.021 19.1349V22.2138C150.021 22.8814 150.152 23.4673 150.415 23.9716C150.678 24.4687 151.051 24.8558 151.534 25.1328C152.017 25.4098 152.592 25.5483 153.26 25.5483C153.721 25.5483 154.14 25.4844 154.517 25.3565C154.893 25.2287 155.216 25.0405 155.486 24.7919C155.756 24.5433 155.958 24.2379 156.093 23.8757L160.877 24.0142C160.678 25.0866 160.241 26.0206 159.566 26.8161C158.899 27.6044 158.022 28.2187 156.935 28.6591C155.848 29.0923 154.591 29.3089 153.164 29.3089ZM168.907 26.017L168.811 27.1996C168.726 28.1797 168.552 29.1349 168.289 30.0653C168.033 31.0028 167.76 31.8445 167.469 32.5902C167.177 33.3359 166.947 33.9148 166.776 34.3267H163.495C163.608 33.9148 163.761 33.3359 163.953 32.5902C164.152 31.8445 164.336 31.0028 164.507 30.0653C164.677 29.1278 164.773 28.1761 164.795 27.2102L164.816 26.017H168.907ZM183.206 29L176.857 7.18182H182.684L185.976 21.4787H186.157L189.918 7.18182H194.669L198.43 21.5107H198.611L201.914 7.18182H207.73L201.392 29H196.31L192.379 15.7685H192.208L188.277 29H183.206ZM215.731 29.3089C214.012 29.3089 212.535 28.9574 211.299 28.2543C210.071 27.544 209.123 26.5568 208.455 25.2926C207.794 24.0213 207.464 22.5476 207.464 20.8714C207.464 19.1882 207.794 17.7145 208.455 16.4503C209.123 15.179 210.071 14.1918 211.299 13.4886C212.535 12.7784 214.012 12.4233 215.731 12.4233C217.45 12.4233 218.924 12.7784 220.152 13.4886C221.388 14.1918 222.336 15.179 222.997 16.4503C223.664 17.7145 223.998 19.1882 223.998 20.8714C223.998 22.5476 223.664 24.0213 222.997 25.2926C222.336 26.5568 221.388 27.544 220.152 28.2543C218.924 28.9574 217.45 29.3089 215.731 29.3089ZM215.763 25.3778C216.388 25.3778 216.917 25.1861 217.35 24.8026C217.784 24.419 218.114 23.8864 218.341 23.2045C218.576 22.5227 218.693 21.7344 218.693 20.8395C218.693 19.9304 218.576 19.1349 218.341 18.4531C218.114 17.7713 217.784 17.2386 217.35 16.8551C216.917 16.4716 216.388 16.2798 215.763 16.2798C215.117 16.2798 214.57 16.4716 214.123 16.8551C213.682 17.2386 213.345 17.7713 213.11 18.4531C212.883 19.1349 212.77 19.9304 212.77 20.8395C212.77 21.7344 212.883 22.5227 213.11 23.2045C213.345 23.8864 213.682 24.419 214.123 24.8026C214.57 25.1861 215.117 25.3778 215.763 25.3778ZM226.667 29V12.6364H231.727V15.6193H231.898C232.196 14.5398 232.683 13.7372 233.357 13.2116C234.032 12.679 234.817 12.4126 235.712 12.4126C235.953 12.4126 236.202 12.4304 236.457 12.4659C236.713 12.4943 236.951 12.5405 237.171 12.6044V17.1321C236.923 17.0469 236.596 16.9794 236.191 16.9297C235.793 16.88 235.438 16.8551 235.126 16.8551C234.508 16.8551 233.95 16.9936 233.453 17.2706C232.963 17.5405 232.576 17.9205 232.292 18.4105C232.015 18.8935 231.876 19.4616 231.876 20.1151V29H226.667ZM243.992 24.7067L244.013 18.4957H244.738L249.34 12.6364H255.242L248.403 21.0312H247.028L243.992 24.7067ZM239.294 29V7.18182H244.503V29H239.294ZM249.457 29L245.175 22.2031L248.605 18.5064L255.476 29H249.457ZM271.393 17.6328L266.609 17.7607C266.559 17.4197 266.425 17.1179 266.204 16.8551C265.984 16.5852 265.697 16.3757 265.341 16.2266C264.993 16.0703 264.589 15.9922 264.127 15.9922C263.523 15.9922 263.008 16.1129 262.582 16.3544C262.163 16.5959 261.957 16.9226 261.964 17.3345C261.957 17.6541 262.085 17.9311 262.348 18.1655C262.618 18.3999 263.097 18.5881 263.786 18.7301L266.939 19.3267C268.573 19.6392 269.787 20.1577 270.583 20.8821C271.385 21.6065 271.79 22.5653 271.797 23.7585C271.79 24.8807 271.456 25.8572 270.796 26.6882C270.143 27.5192 269.248 28.1655 268.111 28.6271C266.975 29.0817 265.675 29.3089 264.212 29.3089C261.876 29.3089 260.032 28.8295 258.683 27.8707C257.341 26.9048 256.574 25.6122 256.382 23.9929L261.528 23.8651C261.641 24.4616 261.936 24.9162 262.412 25.2287C262.888 25.5412 263.495 25.6974 264.233 25.6974C264.901 25.6974 265.444 25.5732 265.863 25.3246C266.282 25.076 266.496 24.7457 266.503 24.3338C266.496 23.9645 266.332 23.6697 266.013 23.4496C265.693 23.2223 265.192 23.0447 264.51 22.9169L261.655 22.3736C260.015 22.0753 258.793 21.5249 257.991 20.7223C257.188 19.9126 256.79 18.8828 256.797 17.6328C256.79 16.5391 257.081 15.6051 257.671 14.831C258.26 14.0497 259.099 13.4531 260.185 13.0412C261.272 12.6293 262.554 12.4233 264.031 12.4233C266.247 12.4233 267.994 12.8885 269.273 13.8189C270.551 14.7422 271.258 16.0135 271.393 17.6328Z" fill="#8259F9"/>
<path d="M51.5736 50V39.0909H55.8776C56.705 39.0909 57.4099 39.2489 57.9923 39.565C58.5747 39.8775 59.0186 40.3125 59.324 40.87C59.6329 41.424 59.7874 42.0632 59.7874 42.7876C59.7874 43.5121 59.6312 44.1513 59.3187 44.7053C59.0062 45.2592 58.5534 45.6907 57.9604 45.9996C57.3709 46.3086 56.6571 46.4631 55.819 46.4631H53.0758V44.6147H55.4462C55.89 44.6147 56.2558 44.5384 56.5435 44.3857C56.8347 44.2294 57.0513 44.0146 57.1933 43.7411C57.3389 43.4641 57.4117 43.1463 57.4117 42.7876C57.4117 42.4254 57.3389 42.1094 57.1933 41.8395C57.0513 41.5661 56.8347 41.3548 56.5435 41.2056C56.2523 41.0529 55.8829 40.9766 55.4355 40.9766H53.8801V50H51.5736ZM64.8078 50.1598C63.9804 50.1598 63.2649 49.984 62.6612 49.6325C62.061 49.2773 61.5976 48.7837 61.2709 48.1516C60.9442 47.516 60.7809 46.7791 60.7809 45.9411C60.7809 45.0959 60.9442 44.3572 61.2709 43.7251C61.5976 43.0895 62.061 42.5959 62.6612 42.2443C63.2649 41.8892 63.9804 41.7116 64.8078 41.7116C65.6353 41.7116 66.349 41.8892 66.9492 42.2443C67.5529 42.5959 68.0181 43.0895 68.3448 43.7251C68.6715 44.3572 68.8348 45.0959 68.8348 45.9411C68.8348 46.7791 68.6715 47.516 68.3448 48.1516C68.0181 48.7837 67.5529 49.2773 66.9492 49.6325C66.349 49.984 65.6353 50.1598 64.8078 50.1598ZM64.8185 48.402C65.1949 48.402 65.5092 48.2955 65.7613 48.0824C66.0134 47.8658 66.2034 47.571 66.3313 47.1982C66.4627 46.8253 66.5284 46.4009 66.5284 45.9251C66.5284 45.4492 66.4627 45.0249 66.3313 44.652C66.2034 44.2791 66.0134 43.9844 65.7613 43.7678C65.5092 43.5511 65.1949 43.4428 64.8185 43.4428C64.4385 43.4428 64.1189 43.5511 63.8597 43.7678C63.604 43.9844 63.4105 44.2791 63.2791 44.652C63.1512 45.0249 63.0873 45.4492 63.0873 45.9251C63.0873 46.4009 63.1512 46.8253 63.2791 47.1982C63.4105 47.571 63.604 47.8658 63.8597 48.0824C64.1189 48.2955 64.4385 48.402 64.8185 48.402ZM70.3103 50V41.8182H72.5103V43.2457H72.5955C72.7446 42.7379 72.995 42.3544 73.3465 42.0952C73.6981 41.8324 74.1029 41.701 74.561 41.701C74.6747 41.701 74.7972 41.7081 74.9286 41.7223C75.06 41.7365 75.1754 41.756 75.2748 41.7809V43.7944C75.1683 43.7624 75.0209 43.734 74.8327 43.7092C74.6445 43.6843 74.4723 43.6719 74.316 43.6719C73.9822 43.6719 73.6839 43.7447 73.4211 43.8903C73.1619 44.0323 72.9559 44.2312 72.8032 44.4869C72.6541 44.7425 72.5795 45.0373 72.5795 45.3711V50H70.3103ZM81.2101 41.8182V43.5227H76.2829V41.8182H81.2101ZM77.4015 39.858H79.6707V47.4858C79.6707 47.6953 79.7026 47.8587 79.7666 47.9759C79.8305 48.0895 79.9193 48.1694 80.0329 48.2156C80.1501 48.2617 80.285 48.2848 80.4377 48.2848C80.5443 48.2848 80.6508 48.2759 80.7573 48.2582C80.8639 48.2369 80.9455 48.2209 81.0024 48.2102L81.3592 49.8988C81.2456 49.9343 81.0858 49.9751 80.8798 50.0213C80.6739 50.071 80.4235 50.1012 80.1288 50.1119C79.5819 50.1332 79.1025 50.0604 78.6906 49.8935C78.2822 49.7266 77.9644 49.4673 77.7371 49.1158C77.5098 48.7642 77.3979 48.3203 77.4015 47.7841V39.858ZM87.0881 41.8182V43.5227H82.0384V41.8182H87.0881ZM83.1943 50V41.2269C83.1943 40.6339 83.3097 40.142 83.5405 39.7514C83.7749 39.3608 84.0945 39.0678 84.4993 38.8725C84.9042 38.6772 85.364 38.5795 85.879 38.5795C86.227 38.5795 86.5448 38.6062 86.8324 38.6594C87.1236 38.7127 87.3402 38.7607 87.4823 38.8033L87.0775 40.5078C86.9887 40.4794 86.8786 40.4528 86.7472 40.4279C86.6194 40.4031 86.488 40.3906 86.353 40.3906C86.0192 40.3906 85.7866 40.4688 85.6552 40.625C85.5238 40.7777 85.4581 40.9925 85.4581 41.2695V50H83.1943ZM91.8782 50.1598C91.0507 50.1598 90.3352 49.984 89.7315 49.6325C89.1313 49.2773 88.6679 48.7837 88.3412 48.1516C88.0145 47.516 87.8512 46.7791 87.8512 45.9411C87.8512 45.0959 88.0145 44.3572 88.3412 43.7251C88.6679 43.0895 89.1313 42.5959 89.7315 42.2443C90.3352 41.8892 91.0507 41.7116 91.8782 41.7116C92.7056 41.7116 93.4193 41.8892 94.0195 42.2443C94.6232 42.5959 95.0884 43.0895 95.4151 43.7251C95.7418 44.3572 95.9051 45.0959 95.9051 45.9411C95.9051 46.7791 95.7418 47.516 95.4151 48.1516C95.0884 48.7837 94.6232 49.2773 94.0195 49.6325C93.4193 49.984 92.7056 50.1598 91.8782 50.1598ZM91.8888 48.402C92.2652 48.402 92.5795 48.2955 92.8316 48.0824C93.0838 47.8658 93.2737 47.571 93.4016 47.1982C93.533 46.8253 93.5987 46.4009 93.5987 45.9251C93.5987 45.4492 93.533 45.0249 93.4016 44.652C93.2737 44.2791 93.0838 43.9844 92.8316 43.7678C92.5795 43.5511 92.2652 43.4428 91.8888 43.4428C91.5088 43.4428 91.1892 43.5511 90.93 43.7678C90.6743 43.9844 90.4808 44.2791 90.3494 44.652C90.2215 45.0249 90.1576 45.4492 90.1576 45.9251C90.1576 46.4009 90.2215 46.8253 90.3494 47.1982C90.4808 47.571 90.6743 47.8658 90.93 48.0824C91.1892 48.2955 91.5088 48.402 91.8888 48.402ZM99.6498 39.0909V50H97.3806V39.0909H99.6498ZM101.468 50V41.8182H103.737V50H101.468ZM102.607 40.7635C102.27 40.7635 101.981 40.6516 101.739 40.4279C101.501 40.2006 101.382 39.929 101.382 39.6129C101.382 39.3004 101.501 39.0323 101.739 38.8086C101.981 38.5813 102.27 38.4677 102.607 38.4677C102.945 38.4677 103.232 38.5813 103.47 38.8086C103.712 39.0323 103.833 39.3004 103.833 39.6129C103.833 39.929 103.712 40.2006 103.47 40.4279C103.232 40.6516 102.945 40.7635 102.607 40.7635ZM109.251 50.1598C108.424 50.1598 107.708 49.984 107.105 49.6325C106.504 49.2773 106.041 48.7837 105.714 48.1516C105.388 47.516 105.224 46.7791 105.224 45.9411C105.224 45.0959 105.388 44.3572 105.714 43.7251C106.041 43.0895 106.504 42.5959 107.105 42.2443C107.708 41.8892 108.424 41.7116 109.251 41.7116C110.079 41.7116 110.792 41.8892 111.393 42.2443C111.996 42.5959 112.461 43.0895 112.788 43.7251C113.115 44.3572 113.278 45.0959 113.278 45.9411C113.278 46.7791 113.115 47.516 112.788 48.1516C112.461 48.7837 111.996 49.2773 111.393 49.6325C110.792 49.984 110.079 50.1598 109.251 50.1598ZM109.262 48.402C109.638 48.402 109.953 48.2955 110.205 48.0824C110.457 47.8658 110.647 47.571 110.775 47.1982C110.906 46.8253 110.972 46.4009 110.972 45.9251C110.972 45.4492 110.906 45.0249 110.775 44.652C110.647 44.2791 110.457 43.9844 110.205 43.7678C109.953 43.5511 109.638 43.4428 109.262 43.4428C108.882 43.4428 108.562 43.5511 108.303 43.7678C108.047 43.9844 107.854 44.2791 107.722 44.652C107.595 45.0249 107.531 45.4492 107.531 45.9251C107.531 46.4009 107.595 46.8253 107.722 47.1982C107.854 47.571 108.047 47.8658 108.303 48.0824C108.562 48.2955 108.882 48.402 109.262 48.402ZM119.839 50L117.613 41.8182H119.909L121.176 47.3153H121.251L122.572 41.8182H124.825L126.167 47.2834H126.237L127.483 41.8182H129.774L127.552 50H125.15L123.744 44.8544H123.643L122.236 50H119.839ZM134.508 50.1598C133.666 50.1598 132.942 49.9893 132.334 49.6484C131.731 49.304 131.266 48.8175 130.939 48.1889C130.612 47.5568 130.449 46.8093 130.449 45.9464C130.449 45.1048 130.612 44.3661 130.939 43.7305C131.266 43.0948 131.725 42.5994 132.318 42.2443C132.915 41.8892 133.615 41.7116 134.417 41.7116C134.957 41.7116 135.459 41.7987 135.925 41.9727C136.393 42.1431 136.802 42.4006 137.15 42.745C137.501 43.0895 137.775 43.5227 137.97 44.0447C138.165 44.5632 138.263 45.1705 138.263 45.8665V46.4897H131.354V45.0835H136.127C136.127 44.7567 136.056 44.4673 135.914 44.2152C135.772 43.9631 135.575 43.766 135.323 43.6239C135.074 43.4783 134.785 43.4055 134.455 43.4055C134.11 43.4055 133.805 43.4854 133.538 43.6452C133.276 43.8015 133.07 44.0128 132.92 44.2791C132.771 44.5419 132.695 44.8349 132.691 45.158V46.495C132.691 46.8999 132.766 47.2496 132.915 47.5444C133.068 47.8391 133.283 48.0664 133.56 48.2262C133.837 48.386 134.165 48.4659 134.545 48.4659C134.797 48.4659 135.028 48.4304 135.238 48.3594C135.447 48.2884 135.626 48.1818 135.776 48.0398C135.925 47.8977 136.038 47.7237 136.116 47.5178L138.215 47.6562C138.109 48.1605 137.89 48.6009 137.56 48.9773C137.233 49.3501 136.811 49.6413 136.292 49.8509C135.777 50.0568 135.182 50.1598 134.508 50.1598ZM139.787 50V39.0909H142.056V43.1925H142.125C142.224 42.9723 142.368 42.7486 142.556 42.5213C142.748 42.2905 142.997 42.0987 143.302 41.946C143.611 41.7898 143.995 41.7116 144.453 41.7116C145.049 41.7116 145.6 41.8679 146.104 42.1804C146.608 42.4893 147.011 42.9563 147.313 43.5813C147.615 44.2028 147.766 44.9822 147.766 45.9197C147.766 46.8324 147.619 47.603 147.324 48.2315C147.033 48.8565 146.635 49.3306 146.131 49.6538C145.63 49.9734 145.069 50.1332 144.447 50.1332C144.007 50.1332 143.632 50.0604 143.323 49.9148C143.018 49.7692 142.768 49.5863 142.572 49.3661C142.377 49.1424 142.228 48.9169 142.125 48.6896H142.024V50H139.787ZM142.008 45.9091C142.008 46.3956 142.075 46.82 142.21 47.1822C142.345 47.5444 142.54 47.8267 142.796 48.0291C143.052 48.228 143.363 48.3274 143.728 48.3274C144.098 48.3274 144.41 48.2262 144.666 48.0238C144.921 47.8178 145.115 47.5337 145.246 47.1715C145.381 46.8058 145.449 46.3849 145.449 45.9091C145.449 45.4368 145.383 45.0213 145.252 44.6626C145.12 44.304 144.927 44.0234 144.671 43.821C144.415 43.6186 144.101 43.5174 143.728 43.5174C143.359 43.5174 143.046 43.6151 142.791 43.8104C142.539 44.0057 142.345 44.2827 142.21 44.6413C142.075 45 142.008 45.4226 142.008 45.9091Z" fill="#8259F9"/>
</svg>
